<svg width="9" height="9" viewBox="0 0 9 9" fill="currentValue" stroke="currentValue" xmlns="http://www.w3.org/2000/svg">
    <path d="M7.39038 0.0769072C7.51223 0.127676 7.62284 0.20207 7.7158 0.295798C7.80953 0.388761 7.88392 0.499362 7.93469 0.621222C7.98546 0.743081 8.0116 0.873786 8.0116 1.0058C8.0116 1.13781 7.98546 1.26852 7.93469 1.39038C7.88392 1.51223 7.80953 1.62284 7.7158 1.7158L5.4158 4.0058L7.7158 6.2958C7.80953 6.38876 7.88392 6.49936 7.93469 6.62122C7.98546 6.74308 8.0116 6.87379 8.0116 7.0058C8.0116 7.13781 7.98546 7.26852 7.93469 7.39038C7.88392 7.51223 7.80953 7.62284 7.7158 7.7158C7.62284 7.80953 7.51223 7.88392 7.39038 7.93469C7.26852 7.98546 7.13781 8.0116 7.0058 8.0116C6.87379 8.0116 6.74308 7.98546 6.62122 7.93469C6.49936 7.88392 6.38876 7.80953 6.2958 7.7158L4.0058 5.4158L1.7158 7.7158C1.62284 7.80953 1.51223 7.88392 1.39038 7.93469C1.26852 7.98546 1.13781 8.0116 1.0058 8.0116C0.873786 8.0116 0.743081 7.98546 0.621222 7.93469C0.499362 7.88392 0.388761 7.80953 0.295798 7.7158C0.20207 7.62284 0.127676 7.51223 0.0769072 7.39038C0.0261385 7.26852 0 7.13781 0 7.0058C0 6.87379 0.0261385 6.74308 0.0769072 6.62122C0.127676 6.49936 0.20207 6.38876 0.295798 6.2958L2.5958 4.0058L0.295798 1.7158C0.107495 1.52749 0.00170659 1.2721 0.0017066 1.0058C0.00170661 0.739497 0.107495 0.484102 0.295798 0.295798C0.484102 0.107495 0.739497 0.00170661 1.0058 0.0017066C1.2721 0.00170659 1.52749 0.107495 1.7158 0.295798L4.0058 2.5958L6.2958 0.295798C6.38876 0.20207 6.49936 0.127676 6.62122 0.0769072C6.74308 0.0261385 6.87379 0 7.0058 0C7.13781 0 7.26852 0.0261385 7.39038 0.0769072Z" />
</svg>